<svg width="104" height="31" viewBox="0 0 104 31" fill="none" xmlns="http://www.w3.org/2000/svg">
<g clip-path="url(#clip0_72_131)" filter="url(#filter0_d_72_131)">
<path d="M24.3164 5.36054C22.7639 4.64249 21.1039 4.12063 19.3684 3.82349C19.1553 4.20442 18.9063 4.71678 18.7346 5.12436C16.8897 4.8501 15.0618 4.8501 13.2508 5.12436C13.0792 4.71678 12.8245 4.20442 12.6095 3.82349C10.8721 4.12063 9.2102 4.6444 7.6577 5.36434C4.52628 10.0421 3.67741 14.6037 4.10185 19.1005C6.17877 20.6337 8.19155 21.5651 10.1704 22.1745C10.6589 21.5098 11.0947 20.8032 11.4701 20.0585C10.7551 19.79 10.0704 19.4586 9.42338 19.0738C9.59502 18.9481 9.76293 18.8167 9.92514 18.6814C13.8715 20.5061 18.1592 20.5061 22.0584 18.6814C22.2225 18.8167 22.3904 18.9481 22.5602 19.0738C21.9113 19.4604 21.2246 19.7918 20.5097 20.0604C20.8851 20.8032 21.319 21.5117 21.8094 22.1764C23.7901 21.567 25.8048 20.6356 27.8817 19.1005C28.3797 13.8875 27.031 9.36786 24.3164 5.36054ZM12.0077 16.335C10.8231 16.335 9.85156 15.2417 9.85156 13.9104C9.85156 12.5791 10.8023 11.4839 12.0077 11.4839C13.2131 11.4839 14.1846 12.5771 14.1639 13.9104C14.1657 15.2417 13.2131 16.335 12.0077 16.335ZM19.9758 16.335C18.7912 16.335 17.8197 15.2417 17.8197 13.9104C17.8197 12.5791 18.7704 11.4839 19.9758 11.4839C21.1812 11.4839 22.1527 12.5771 22.132 13.9104C22.132 15.2417 21.1812 16.335 19.9758 16.335Z" fill="#23272A"/>
<path d="M36.2288 8.50537H41.3785C42.6199 8.50537 43.6687 8.70154 44.529 9.092C45.3871 9.48242 46.0305 10.0272 46.4569 10.7242C46.883 11.4213 47.098 12.2194 47.098 13.1184C47.098 13.9983 46.8755 14.7963 46.4303 15.5106C45.9852 16.2267 45.3079 16.7924 44.3969 17.2095C43.4859 17.6266 42.3575 17.8361 41.0089 17.8361H36.2288V8.50537ZM40.956 15.4649C41.7917 15.4649 42.4351 15.2534 42.8839 14.8325C43.333 14.4097 43.5575 13.8345 43.5575 13.105C43.5575 12.4289 43.3573 11.8899 42.9575 11.4861C42.5578 11.0823 41.9522 10.8785 41.1427 10.8785H39.5318V15.4649H40.956Z" fill="#23272A"/>
<path d="M54.808 17.8249C54.0949 17.6382 53.4515 17.3678 52.8801 17.0116V14.7984C53.3121 15.1355 53.8911 15.4136 54.6173 15.6327C55.3436 15.8498 56.0455 15.9583 56.7244 15.9583C57.0413 15.9583 57.281 15.9164 57.4431 15.8326C57.6055 15.7488 57.6867 15.6479 57.6867 15.5317C57.6867 15.3984 57.6433 15.2879 57.5545 15.1984C57.4658 15.1089 57.2942 15.0346 57.0397 14.9717L55.455 14.6118C54.5476 14.3985 53.9042 14.1032 53.5216 13.7242C53.1385 13.3471 52.9479 12.8519 52.9479 12.2386C52.9479 11.7224 53.1139 11.2749 53.4499 10.892C53.7836 10.5092 54.259 10.214 54.8757 10.0064C55.4928 9.79689 56.2132 9.69214 57.0413 9.69214C57.7807 9.69214 58.458 9.77212 59.0751 9.93212C59.6919 10.0921 60.2011 10.2959 60.6068 10.5454V12.6386C60.1916 12.3891 59.7162 12.1929 59.1731 12.0443C58.6316 11.8977 58.0753 11.8253 57.5016 11.8253C56.6734 11.8253 56.2605 11.9681 56.2605 12.2519C56.2605 12.3853 56.3246 12.4843 56.4528 12.551C56.5811 12.6176 56.8168 12.6862 57.1584 12.7586L58.4787 12.9986C59.3411 13.149 59.9841 13.4138 60.4066 13.7909C60.8294 14.168 61.0405 14.7261 61.0405 15.465C61.0405 16.2745 60.6916 16.9164 59.9917 17.3925C59.2917 17.8687 58.2995 18.1067 57.0131 18.1067C56.2566 18.1049 55.5211 18.0115 54.808 17.8249Z" fill="#23272A"/>
<path d="M64.1571 17.5447C63.4009 17.1714 62.8292 16.6648 62.4481 16.0248C62.0671 15.3849 61.8748 14.6649 61.8748 13.865C61.8748 13.065 62.0727 12.3489 62.4688 11.7185C62.865 11.088 63.4459 10.5928 64.212 10.2329C64.9777 9.87289 65.8926 9.69385 66.9585 9.69385C68.2788 9.69385 69.3749 9.97384 70.2465 10.5338V12.9736C69.9391 12.7603 69.5804 12.587 69.1711 12.4536C68.7618 12.3203 68.3242 12.2536 67.8563 12.2536C67.0377 12.2536 66.3983 12.4041 65.936 12.707C65.4738 13.0098 65.242 13.404 65.242 13.8935C65.242 14.3735 65.4662 14.7659 65.9153 15.0744C66.3644 15.3811 67.015 15.5353 67.8695 15.5353C68.3091 15.5353 68.743 15.4706 69.1711 15.343C69.5975 15.2135 69.9654 15.0554 70.2728 14.8687V17.2285C69.3052 17.8151 68.1828 18.1085 66.9056 18.1085C65.8305 18.1047 64.9136 17.918 64.1571 17.5447Z" fill="#23272A"/>
<path d="M73.5401 17.5448C72.778 17.1716 72.1971 16.6611 71.797 16.0116C71.3972 15.3621 71.1953 14.6384 71.1953 13.8385C71.1953 13.0385 71.3952 12.3243 71.797 11.6977C72.1987 11.071 72.776 10.5796 73.5345 10.2235C74.2907 9.86731 75.1944 9.69019 76.2412 9.69019C77.2884 9.69019 78.1918 9.86731 78.9483 10.2235C79.7048 10.5796 80.2821 11.0672 80.6783 11.69C81.0744 12.3129 81.2724 13.0271 81.2724 13.8366C81.2724 14.6365 81.0744 15.3603 80.6783 16.0097C80.2821 16.6592 79.7028 17.1696 78.9407 17.543C78.1787 17.9163 77.2788 18.1029 76.2396 18.1029C75.2 18.1029 74.3002 17.9181 73.5401 17.5448ZM77.5524 15.1793C77.8732 14.8555 78.0353 14.427 78.0353 13.8937C78.0353 13.3604 77.8749 12.9357 77.5524 12.6214C77.2318 12.3052 76.7939 12.1472 76.2396 12.1472C75.6754 12.1472 75.2339 12.3052 74.9114 12.6214C74.5908 12.9376 74.4304 13.3604 74.4304 13.8937C74.4304 14.427 74.5908 14.8555 74.9114 15.1793C75.2322 15.5031 75.6754 15.6669 76.2396 15.6669C76.7939 15.665 77.2318 15.5031 77.5524 15.1793Z" fill="#23272A"/>
<path d="M89.2066 10.1854V13.0652C88.871 12.8424 88.437 12.7319 87.8995 12.7319C87.1956 12.7319 86.6524 12.9472 86.275 13.3776C85.8959 13.8081 85.7072 14.4785 85.7072 15.3851V17.8382H82.4722V10.0388H85.6415V12.5186C85.8167 11.612 86.1018 10.9435 86.494 10.5111C86.8846 10.0807 87.3899 9.86548 88.005 9.86548C88.4709 9.86548 88.871 9.97214 89.2066 10.1854Z" fill="#23272A"/>
<path d="M99.9553 8.23877V17.8381H96.7199V16.0915C96.4464 16.7486 96.0315 17.2496 95.4732 17.5924C94.9146 17.9333 94.2242 18.1047 93.4056 18.1047C92.6738 18.1047 92.0363 17.9257 91.4909 17.5657C90.9458 17.2057 90.5253 16.7125 90.229 16.0858C89.9348 15.4592 89.7855 14.7507 89.7855 13.9584C89.7763 13.1413 89.9328 12.408 90.2553 11.7585C90.5762 11.109 91.0306 10.6024 91.6155 10.2386C92.2003 9.87485 92.8681 9.69201 93.617 9.69201C95.1582 9.69201 96.1919 10.3681 96.7199 11.7185V8.23877H99.9553ZM96.2373 15.1259C96.5673 14.8021 96.7314 14.3812 96.7314 13.867C96.7314 13.3698 96.571 12.9641 96.2504 12.6537C95.9295 12.3433 95.49 12.1871 94.9373 12.1871C94.3922 12.1871 93.9566 12.3451 93.6301 12.6613C93.3037 12.9775 93.1416 13.387 93.1416 13.8936C93.1416 14.4003 93.3037 14.8136 93.6301 15.1335C93.9566 15.4535 94.3866 15.6135 94.9242 15.6135C95.4693 15.6116 95.9069 15.4497 96.2373 15.1259Z" fill="#23272A"/>
<path d="M49.8241 10.8691C50.7147 10.8691 51.437 10.2142 51.437 9.40633C51.437 8.59848 50.7147 7.9436 49.8241 7.9436C48.9332 7.9436 48.2112 8.59848 48.2112 9.40633C48.2112 10.2142 48.9332 10.8691 49.8241 10.8691Z" fill="#23272A"/>
<path d="M48.21 11.8767C49.1982 12.3071 50.4245 12.3262 51.4355 11.8767V17.8801H48.21V11.8767Z" fill="#23272A"/>
</g>
<defs>
<filter id="filter0_d_72_131" x="0" y="0" width="104" height="34" filterUnits="userSpaceOnUse" color-interpolation-filters="sRGB">
<feFlood flood-opacity="0" result="BackgroundImageFix"/>
<feColorMatrix in="SourceAlpha" type="matrix" values="0 0 0 0 0 0 0 0 0 0 0 0 0 0 0 0 0 0 127 0" result="hardAlpha"/>
<feOffset dy="4"/>
<feGaussianBlur stdDeviation="2"/>
<feComposite in2="hardAlpha" operator="out"/>
<feColorMatrix type="matrix" values="0 0 0 0 0 0 0 0 0 0 0 0 0 0 0 0 0 0 0.25 0"/>
<feBlend mode="normal" in2="BackgroundImageFix" result="effect1_dropShadow_72_131"/>
<feBlend mode="normal" in="SourceGraphic" in2="effect1_dropShadow_72_131" result="shape"/>
</filter>
<clipPath id="clip0_72_131">
<rect width="96" height="26" fill="white" transform="translate(4)"/>
</clipPath>
</defs>
</svg>
