<?xml version="1.0" encoding="utf-8"?>
<!-- Generator: Adobe Illustrator 25.3.0, SVG Export Plug-In . SVG Version: 6.00 Build 0)  -->
<svg version="1.1" id="Calque_1" xmlns="http://www.w3.org/2000/svg" xmlns:xlink="http://www.w3.org/1999/xlink" x="0px" y="0px"
	 viewBox="0 0 954 764" style="enable-background:new 0 0 954 764;" xml:space="preserve">
<style type="text/css">
	.st0{fill:url(#SVGID_1_);}
	.st1{fill:#FFFFFF;}
	.st2{fill:url(#SVGID_2_);}
	.st3{fill:url(#SVGID_3_);}
	.st4{fill:url(#SVGID_4_);}
	.st5{fill:url(#SVGID_5_);}
	.st6{fill:url(#SVGID_6_);}
	.st7{fill:url(#SVGID_7_);}
	.st8{fill:url(#SVGID_8_);}
</style>
<g>
	<path class="st1" d="M639.29,67.27c-89.62-89.62-234.91-89.62-324.58,0L0,381.98l314.71,314.75c89.66,89.62,234.95,89.62,324.58,0
		L954,381.98L639.29,67.27z M246.05,460.17l-5.38-5.38l-72.81-72.81L398.87,151c43.14-43.18,113.12-43.18,156.3,0L324.19,382.02
		l115.49,115.45l-78.15,78.19L246.05,460.17z M592.51,575.66L555.17,613c-43.18,43.14-113.16,43.14-156.3,0l115.49-115.49
		L398.87,381.98l78.15-78.15l115.49,115.49l78.15,78.15L592.51,575.66z M514.36,266.49l78.15-78.15l193.64,193.64L708,460.17
		L514.36,266.49z"/>
</g>
</svg>
