<?xml version="1.0" encoding="utf-8"?>
<!-- Generator: Adobe Illustrator 25.3.0, SVG Export Plug-In . SVG Version: 6.00 Build 0)  -->
<svg version="1.1" id="Calque_1" xmlns="http://www.w3.org/2000/svg" xmlns:xlink="http://www.w3.org/1999/xlink" x="0px" y="0px"
	 viewBox="0 0 954 436" style="enable-background:new 0 0 954 436;" xml:space="preserve">
<style type="text/css">
	.st0{fill:url(#SVGID_1_);}
	.st1{fill:#FFFFFF;}
	.st2{fill:url(#SVGID_2_);}
	.st3{fill:url(#SVGID_3_);}
	.st4{fill:url(#SVGID_4_);}
	.st5{fill:url(#SVGID_5_);}
	.st6{fill:url(#SVGID_6_);}
	.st7{fill:url(#SVGID_7_);}
	.st8{fill:url(#SVGID_8_);}
</style>
<g>
	<path d="M185.15,115.72h92.89v31.38H148.93V-0.35h36.23V115.72z"/>
	<path d="M331.55-0.35V147.1h-36.23V-0.35H331.55z"/>
	<path d="M495.43,56.53v90.57H388.64c-16.85,0-32.23-14.32-32.23-32.02v-83.2c0-17.06,14.32-32.23,32.23-32.23h104.69v31.39H401.7
		c-5.06,0-9.06,4-9.06,9.06v66.56c0,5.06,4,9.06,9.06,9.06h58.14V87.7h-37.7V56.53H495.43z"/>
	<path d="M660.36-0.35V147.1h-36.23V87.7h-67.61v59.4h-36.23V-0.35h36.23v56.87h67.61V-0.35H660.36z"/>
	<path d="M815.4,31.04h-51.18V147.1h-36.23V31.04H676.8V-0.35h138.6V31.04z"/>
	<path d="M138.91,246.11v90.57H32.12c-16.85,0-32.23-14.32-32.23-32.02v-83.2c0-17.06,14.32-32.23,32.23-32.23h104.69v31.39H45.18
		c-5.06,0-9.06,4-9.06,9.06v66.56c0,5.05,4,9.06,9.06,9.06h58.14v-28.02h-37.7v-31.17H138.91z"/>
	<path d="M304.9,189.23v147.45h-36.23V295.4h-69.09v41.28h-36.23V221.25c0-17.48,14.32-31.39,32.02-32.02H304.9z M199.58,264.22
		h69.09v-43.81h-60.03c-5.06,0-9.06,4.21-9.06,9.27V264.22z"/>
	<path d="M440.56,189.23c16.85,0,32.02,14.32,32.02,32.02v32.44c0,16.01-12.64,30.33-29.07,32.02l28.86,50.97h-39.39l-28.65-50.97
		h-37.07v50.97h-36.23V189.23H440.56z M436.34,229.68c0-5.05-4-9.27-9.06-9.27h-60.03v34.12h60.03c5.06,0,9.06-4.21,9.06-9.27
		V229.68z"/>
	<path d="M637.72,304.66c0,16.85-14.32,32.02-32.23,32.02H496.17V189.23h109.32c17.06,0,32.23,14.32,32.23,32.02V304.66z
		 M601.28,229.68c0-5.05-4-9.27-9.06-9.27H532.4v85.1h59.82c5.06,0,9.06-4.21,9.06-9.27V229.68z"/>
	<path d="M787.7,336.68H662.58V189.23H787.7v31.17h-88.89v25.7h72.67v31.17h-72.67v28.23h88.89V336.68z"/>
	<path d="M922.09,189.23c16.85,0,32.02,14.32,32.02,32.02v115.43h-36.23v-107c0-5.05-4-9.27-9.06-9.27h-60.03v116.27h-36.23V189.23
		H922.09z"/>
	<path d="M250.17,436.35h-50.03v-63.22h50.03v7.68H208.9v19.33h34.32v7.68H208.9v20.86h41.27V436.35z"/>
	<path d="M321.71,400.4c7.68,0,14.36,6.41,14.36,14.36v7.23c0,7.77-6.41,14.36-14.36,14.36H280.8v-7.68h39.02
		c4.24,0,7.5-3.34,7.5-7.59v-5.42c0-4.24-3.25-7.59-7.5-7.59h-25.47c-7.68,0-14.45-6.41-14.45-14.36v-6.23
		c0-7.68,6.5-14.36,14.45-14.36h39.11v7.68h-37.21c-4.24,0-7.59,3.34-7.59,7.59v4.43c0,4.24,3.34,7.59,7.59,7.59H321.71z"/>
	<path d="M408.41,373.13c7.68,0,14.36,6.41,14.36,14.36v15.62c0,7.77-6.5,14.36-14.36,14.36h-33.05v18.88h-8.76v-63.22H408.41z
		 M414.01,388.39c0-4.24-3.34-7.59-7.59-7.59h-31.07v28.99h31.07c4.24,0,7.59-3.34,7.59-7.59V388.39z"/>
	<path d="M496.12,373.13c7.68,0,14.36,6.41,14.36,14.36v34.5c0,7.77-6.41,14.36-14.36,14.36h-29.26c-7.77,0-14.36-6.41-14.36-14.36
		v-34.5c0-7.68,6.68-14.36,14.36-14.36H496.12z M501.72,388.39c0-4.24-3.34-7.59-7.59-7.59h-25.29c-4.24,0-7.59,3.34-7.59,7.59
		v32.69c0,4.24,3.34,7.59,7.59,7.59h25.29c4.25,0,7.59-3.34,7.59-7.59V388.39z"/>
	<path d="M582.82,373.13c7.68,0,14.36,6.41,14.36,14.36v9.21c0,7.77-6.41,14.36-14.36,14.36l14.27,25.29h-9.57l-14.27-25.29h-23.48
		v25.29h-8.76v-63.22H582.82z M588.42,388.39c0-4.24-3.34-7.59-7.59-7.59h-31.07v22.58h31.07c4.24,0,7.59-3.34,7.59-7.59V388.39z"/>
	<path d="M675.67,380.89H652.1v55.45h-8.76v-55.45h-23.66v-7.77h55.99V380.89z"/>
	<path d="M741.43,400.4c7.68,0,14.36,6.41,14.36,14.36v7.23c0,7.77-6.41,14.36-14.36,14.36h-40.91v-7.68h39.01
		c4.24,0,7.5-3.34,7.5-7.59v-5.42c0-4.24-3.25-7.59-7.5-7.59h-25.47c-7.68,0-14.45-6.41-14.45-14.36v-6.23
		c0-7.68,6.5-14.36,14.45-14.36h39.11v7.68h-37.21c-4.24,0-7.59,3.34-7.59,7.59v4.43c0,4.24,3.34,7.59,7.59,7.59H741.43z"/>
</g>
</svg>
