<?xml version="1.0" encoding="utf-8"?>
<!-- Generator: Adobe Illustrator 26.3.1, SVG Export Plug-In . SVG Version: 6.00 Build 0)  -->
<svg version="1.1" id="Calque_1" xmlns="http://www.w3.org/2000/svg" xmlns:xlink="http://www.w3.org/1999/xlink" x="0px" y="0px"
	 viewBox="0 0 954 764" style="enable-background:new 0 0 954 764;" xml:space="preserve">
<style type="text/css">
	.st0{fill:#6BB623;}
</style>
<g>
	<path class="st0" d="M639.3,67.3c-89.6-89.6-234.9-89.6-324.6,0L0,382l314.7,314.7c89.7,89.6,234.9,89.6,324.6,0L954,382
		L639.3,67.3z M246.1,460.2l-5.4-5.4L167.9,382l231-231c43.1-43.2,113.1-43.2,156.3,0l-231,231l115.5,115.4l-78.1,78.2L246.1,460.2z
		 M592.5,575.7L555.2,613c-43.2,43.1-113.2,43.1-156.3,0l115.5-115.5L398.9,382l78.1-78.1l115.5,115.5l78.2,78.1L592.5,575.7z
		 M514.4,266.5l78.2-78.1L786.2,382L708,460.2L514.4,266.5z"/>
</g>
</svg>
