<?xml version="1.0" encoding="utf-8"?>
<!-- Generator: Adobe Illustrator 25.3.0, SVG Export Plug-In . SVG Version: 6.00 Build 0)  -->
<svg version="1.1" id="Calque_1" xmlns="http://www.w3.org/2000/svg" xmlns:xlink="http://www.w3.org/1999/xlink" x="0px" y="0px"
	 viewBox="0 0 952 436" style="enable-background:new 0 0 952 436;" xml:space="preserve">
<style type="text/css">
	.st0{fill:url(#SVGID_1_);}
	.st1{fill:#FFFFFF;}
	.st2{fill:url(#SVGID_2_);}
	.st3{fill:url(#SVGID_3_);}
	.st4{fill:url(#SVGID_4_);}
	.st5{fill:url(#SVGID_5_);}
	.st6{fill:url(#SVGID_6_);}
	.st7{fill:url(#SVGID_7_);}
	.st8{fill:url(#SVGID_8_);}
</style>
<g>
	<g>
		<path d="M36.87,115.88h92.74v31.33H0.7V0h36.17V115.88z"/>
		<path d="M183.04,0v147.21h-36.17V0H183.04z"/>
		<path d="M346.65,56.78v90.43H240.03c-16.82,0-32.18-14.3-32.18-31.97V32.18c0-17.03,14.3-32.18,32.18-32.18h104.51v31.34h-91.48
			c-5.05,0-9.04,3.99-9.04,9.04v66.45c0,5.05,3.99,9.04,9.04,9.04h58.04V87.9h-37.64V56.78H346.65z"/>
		<path d="M511.33,0v147.21h-36.17V87.9h-67.51v59.3h-36.17V0h36.17v56.78h67.51V0H511.33z"/>
		<path d="M666.12,31.34h-51.1v115.87h-36.17V31.34h-51.1V0h138.37V31.34z"/>
		<path d="M138.44,246.06v90.43H31.82c-16.82,0-32.18-14.3-32.18-31.97v-83.07c0-17.03,14.3-32.18,32.18-32.18h104.51v31.34H44.86
			c-5.05,0-9.04,3.99-9.04,9.04v66.45c0,5.05,3.99,9.04,9.04,9.04h58.04v-27.97H65.26v-31.12H138.44z"/>
		<path d="M304.17,189.28v147.21H268v-41.22h-68.98v41.22h-36.17V221.25c0-17.46,14.3-31.33,31.97-31.97H304.17z M199.02,264.15H268
			v-43.74h-59.93c-5.05,0-9.04,4.2-9.04,9.25V264.15z"/>
		<path d="M439.61,189.28c16.82,0,31.97,14.3,31.97,31.97v32.39c0,15.98-12.62,30.28-29.02,31.97l28.81,50.89h-39.33l-28.6-50.89
			h-37.01v50.89h-36.17V189.28H439.61z M435.4,229.66c0-5.05-3.99-9.25-9.04-9.25h-59.93v34.07h59.93c5.05,0,9.04-4.21,9.04-9.25
			V229.66z"/>
		<path d="M636.46,304.52c0,16.82-14.3,31.97-32.18,31.97H495.14V189.28h109.14c17.03,0,32.18,14.3,32.18,31.97V304.52z
			 M600.08,229.66c0-5.05-4-9.25-9.04-9.25h-59.72v84.96h59.72c5.05,0,9.04-4.2,9.04-9.25V229.66z"/>
		<path d="M786.21,336.49H661.29V189.28h124.92v31.13h-88.74v25.66h72.55v31.12h-72.55v28.18h88.74V336.49z"/>
		<path d="M920.39,189.28c16.82,0,31.97,14.3,31.97,31.97v115.24h-36.17V229.66c0-5.05-3.99-9.25-9.04-9.25h-59.93v116.08h-36.17
			V189.28H920.39z"/>
		<g>
			<path d="M49.62,436H-0.35v-63.14h49.97v7.67H8.39v19.3h34.28v7.67H8.39v20.84h41.22V436z"/>
			<path d="M121.04,400.1c7.67,0,14.34,6.4,14.34,14.34v7.22c0,7.76-6.4,14.34-14.34,14.34H80.17v-7.67h38.97
				c4.24,0,7.49-3.34,7.49-7.58v-5.41c0-4.24-3.25-7.57-7.49-7.57H93.71c-7.67,0-14.43-6.41-14.43-14.35v-6.22
				c0-7.67,6.49-14.34,14.43-14.34h39.06v7.67H95.6c-4.24,0-7.58,3.34-7.58,7.58v4.42c0,4.24,3.34,7.58,7.58,7.58H121.04z"/>
			<path d="M207.61,372.86c7.67,0,14.34,6.41,14.34,14.34v15.61c0,7.76-6.5,14.34-14.34,14.34h-33.02V436h-8.75v-63.14H207.61z
				 M213.2,388.1c0-4.24-3.34-7.58-7.58-7.58h-31.03v28.96h31.03c4.24,0,7.58-3.34,7.58-7.58V388.1z"/>
			<path d="M295.17,372.86c7.67,0,14.34,6.41,14.34,14.34v34.46c0,7.76-6.41,14.34-14.34,14.34h-29.23
				c-7.76,0-14.34-6.41-14.34-14.34V387.2c0-7.67,6.67-14.34,14.34-14.34H295.17z M300.76,388.1c0-4.24-3.34-7.58-7.57-7.58h-25.26
				c-4.24,0-7.58,3.34-7.58,7.58v32.65c0,4.24,3.34,7.58,7.58,7.58h25.26c4.24,0,7.57-3.34,7.57-7.58V388.1z"/>
			<path d="M381.74,372.86c7.67,0,14.34,6.41,14.34,14.34v9.2c0,7.76-6.4,14.34-14.34,14.34L396,436h-9.56l-14.25-25.26h-23.45V436
				h-8.75v-63.14H381.74z M387.34,388.1c0-4.24-3.34-7.58-7.58-7.58h-31.03v22.55h31.03c4.24,0,7.58-3.34,7.58-7.57V388.1z"/>
			<path d="M474.45,380.61h-23.54V436h-8.75v-55.39h-23.64v-7.76h55.93V380.61z"/>
			<path d="M540.1,400.1c7.67,0,14.34,6.4,14.34,14.34v7.22c0,7.76-6.4,14.34-14.34,14.34h-40.86v-7.67h38.97
				c4.24,0,7.49-3.34,7.49-7.58v-5.41c0-4.24-3.25-7.57-7.49-7.57h-25.44c-7.67,0-14.43-6.41-14.43-14.35v-6.22
				c0-7.67,6.49-14.34,14.43-14.34h39.06v7.67h-37.17c-4.24,0-7.58,3.34-7.58,7.58v4.42c0,4.24,3.34,7.58,7.58,7.58H540.1z"/>
		</g>
	</g>
</g>
</svg>
