<?xml version="1.0" encoding="utf-8"?>
<!-- Generator: Adobe Illustrator 26.3.1, SVG Export Plug-In . SVG Version: 6.00 Build 0)  -->
<svg version="1.1" id="Calque_1" xmlns="http://www.w3.org/2000/svg" xmlns:xlink="http://www.w3.org/1999/xlink" x="0px" y="0px"
	 viewBox="0 0 1761 528" style="enable-background:new 0 0 1761 528;" xml:space="preserve">
<style type="text/css">
	.st0{fill:#6BB623;}
</style>
<g>
	<g>
		<path class="st0" d="M153.6-0.4h-49.5C46.7-0.4,0,46.3,0,103.8v423.4h117.9h35.8h187V373.5h-187V-0.4z"/>
		<rect x="187" y="-0.4" class="st0" width="340.6" height="153.6"/>
		<path class="st0" d="M187,186.6v153.6h187v187h49.5c57.4,0,104.2-46.7,104.2-104.1v-82.8V186.6H373.9H187z"/>
	</g>
	<g>
		<g>
			<path d="M651.8,140.6h112.4v38H608V0.2h43.8V140.6z"/>
			<path d="M828.9,0.2v178.4h-43.8V0.2H828.9z"/>
			<path d="M1027.2,69v109.6H898c-20.4,0-39-17.3-39-38.7V39.2c0-20.6,17.3-39,39-39h126.6v38H913.8c-6.1,0-11,4.8-11,11v80.5
				c0,6.1,4.8,11,11,11h70.3v-33.9h-45.6V69H1027.2z"/>
			<path d="M1226.7,0.2v178.4h-43.8v-71.8h-81.8v71.8h-43.8V0.2h43.8V69h81.8V0.2H1226.7z"/>
			<path d="M1414.2,38.1h-61.9v140.4h-43.8V38.1h-61.9v-38h167.7V38.1z"/>
			<path d="M774.9,298.3v109.6H645.7c-20.4,0-39-17.3-39-38.7V268.5c0-20.6,17.3-39,39-39h126.6v38H661.5c-6.1,0-11,4.8-11,11v80.5
				c0,6.1,4.8,11,11,11h70.3V336h-45.6v-37.7L774.9,298.3L774.9,298.3z"/>
			<path d="M975.7,229.5v178.4h-43.8v-49.9h-83.6v49.9h-43.8V268.2c0-21.1,17.3-38,38.7-38.7H975.7z M848.3,320.2h83.6v-53h-72.6
				c-6.1,0-11,5.1-11,11.2V320.2z"/>
			<path d="M1139.8,229.5c20.4,0,38.7,17.3,38.7,38.7v39.2c0,19.4-15.3,36.7-35.2,38.7l34.9,61.7h-47.7l-34.7-61.7h-44.8v61.7h-43.8
				V229.5H1139.8z M1134.7,278.4c0-6.1-4.8-11.2-10.9-11.2h-72.6v41.3h72.6c6.1,0,10.9-5.1,10.9-11.2V278.4z"/>
			<path d="M1378.3,369.1c0,20.4-17.3,38.7-39,38.7h-132.2V229.5h132.2c20.6,0,39,17.3,39,38.7V369.1z M1334.2,278.4
				c0-6.1-4.8-11.2-11-11.2h-72.4v102.9h72.4c6.1,0,11-5.1,11-11.2V278.4z"/>
			<path d="M1559.7,407.8h-151.3V229.5h151.3v37.7h-107.5v31.1h87.9V336h-87.9v34.1h107.5V407.8z"/>
			<path d="M1722.3,229.5c20.4,0,38.7,17.3,38.7,38.7v139.6h-43.8V278.4c0-6.1-4.8-11.2-10.9-11.2h-72.6v140.6h-43.8V229.5H1722.3z"
				/>
			<g>
				<path d="M667.3,528.4h-60.5v-76.5h60.5v9.3h-50v23.4h41.5v9.3h-41.5v25.2h50L667.3,528.4L667.3,528.4z"/>
				<path d="M753.8,484.9c9.3,0,17.4,7.8,17.4,17.4v8.7c0,9.4-7.8,17.4-17.4,17.4h-49.5v-9.3h47.2c5.1,0,9.1-4,9.1-9.2v-6.6
					c0-5.1-3.9-9.2-9.1-9.2h-30.8c-9.3,0-17.5-7.8-17.5-17.4v-7.5c0-9.3,7.9-17.4,17.5-17.4H768v9.3h-45c-5.1,0-9.2,4-9.2,9.2v5.4
					c0,5.1,4,9.2,9.2,9.2L753.8,484.9L753.8,484.9z"/>
				<path d="M858.7,451.9c9.3,0,17.4,7.8,17.4,17.4v18.9c0,9.4-7.9,17.4-17.4,17.4h-40v22.8h-10.6v-76.5L858.7,451.9L858.7,451.9z
					 M865.5,470.4c0-5.1-4-9.2-9.2-9.2h-37.6v35.1h37.6c5.1,0,9.2-4,9.2-9.2V470.4z"/>
				<path d="M964.8,451.9c9.3,0,17.4,7.8,17.4,17.4V511c0,9.4-7.8,17.4-17.4,17.4h-35.4c-9.4,0-17.4-7.8-17.4-17.4v-41.8
					c0-9.3,8.1-17.4,17.4-17.4L964.8,451.9L964.8,451.9z M971.6,470.4c0-5.1-4-9.2-9.2-9.2h-30.6c-5.1,0-9.2,4-9.2,9.2v39.6
					c0,5.1,4,9.2,9.2,9.2h30.6c5.1,0,9.2-4,9.2-9.2V470.4z"/>
				<path d="M1069.7,451.9c9.3,0,17.4,7.8,17.4,17.4v11.1c0,9.4-7.8,17.4-17.4,17.4l17.3,30.6h-11.6l-17.3-30.6h-28.4v30.6h-10.6
					v-76.5L1069.7,451.9L1069.7,451.9z M1076.4,470.4c0-5.1-4.1-9.2-9.2-9.2h-37.6v27.3h37.6c5.1,0,9.2-4,9.2-9.2V470.4z"/>
				<path d="M1182,461.3h-28.5v67.1h-10.6v-67.1h-28.6v-9.4h67.8V461.3z"/>
				<path d="M1261.5,484.9c9.3,0,17.4,7.8,17.4,17.4v8.7c0,9.4-7.8,17.4-17.4,17.4H1212v-9.3h47.2c5.1,0,9.1-4,9.1-9.2v-6.6
					c0-5.1-3.9-9.2-9.1-9.2h-30.8c-9.3,0-17.5-7.8-17.5-17.4v-7.5c0-9.3,7.9-17.4,17.5-17.4h47.3v9.3h-45c-5.1,0-9.2,4-9.2,9.2v5.4
					c0,5.1,4.1,9.2,9.2,9.2L1261.5,484.9L1261.5,484.9z"/>
			</g>
		</g>
	</g>
</g>
</svg>
