<?xml version="1.0" encoding="utf-8"?>
<!-- Generator: Adobe Illustrator 26.3.1, SVG Export Plug-In . SVG Version: 6.00 Build 0)  -->
<svg version="1.1" id="Calque_1" xmlns="http://www.w3.org/2000/svg" xmlns:xlink="http://www.w3.org/1999/xlink" x="0px" y="0px"
	 viewBox="0 0 954 1080" style="enable-background:new 0 0 954 1080;" xml:space="preserve">
<style type="text/css">
	.st0{fill:#6BB623;}
</style>
<g>
	<g>
		<path class="st0" d="M596.4,49.5c-65.9-65.9-172.8-65.9-238.8,0L126.1,281l231.5,231.6c66,65.9,172.9,65.9,238.8,0L827.9,281
			L596.4,49.5z M307.1,338.5l-4-4L249.6,281l170-169.9c31.7-31.8,83.2-31.8,115,0L364.6,281l85,84.9L392,423.5L307.1,338.5z
			 M562,423.5l-27.5,27.5c-31.8,31.7-83.2,31.7-115,0l85-85l-85-85l57.5-57.5l85,85l57.5,57.5L562,423.5z M504.5,196l57.5-57.5
			L704.4,281L647,338.5L504.5,196z"/>
	</g>
	<g>
		<path d="M185.1,759.4H278v31.4H148.9V643.3h36.2L185.1,759.4L185.1,759.4z"/>
		<path d="M331.5,643.3v147.5h-36.2V643.3H331.5z"/>
		<path d="M495.4,700.2v90.6H388.6c-16.9,0-32.2-14.3-32.2-32v-83.2c0-17.1,14.3-32.2,32.2-32.2h104.7v31.4h-91.6
			c-5.1,0-9.1,4-9.1,9.1v66.6c0,5.1,4,9.1,9.1,9.1h58.1v-28h-37.7v-31.2H495.4z"/>
		<path d="M660.4,643.3v147.5h-36.2v-59.4h-67.6v59.4h-36.2V643.3h36.2v56.9h67.6v-56.9H660.4z"/>
		<path d="M815.4,674.7h-51.2v116.1H728V674.7h-51.2v-31.4h138.6V674.7z"/>
		<path d="M138.9,889.8v90.6H32.1c-16.9,0-32.2-14.3-32.2-32v-83.2c0-17.1,14.3-32.2,32.2-32.2h104.7v31.4H45.2
			c-5.1,0-9.1,4-9.1,9.1v66.6c0,5,4,9.1,9.1,9.1h58.1v-28H65.6v-31.2H138.9z"/>
		<path d="M304.9,832.9v147.5h-36.2v-41.3h-69.1v41.3h-36.2V864.9c0-17.5,14.3-31.4,32-32L304.9,832.9L304.9,832.9z M199.6,907.9
			h69.1v-43.8h-60c-5.1,0-9.1,4.2-9.1,9.3L199.6,907.9L199.6,907.9z"/>
		<path d="M440.6,832.9c16.9,0,32,14.3,32,32v32.4c0,16-12.6,30.3-29.1,32l28.9,51H433l-28.6-51h-37.1v51H331V832.9H440.6z
			 M436.3,873.3c0-5-4-9.3-9.1-9.3h-60v34.1h60c5.1,0,9.1-4.2,9.1-9.3V873.3z"/>
		<path d="M637.7,948.3c0,16.8-14.3,32-32.2,32H496.2V832.9h109.3c17.1,0,32.2,14.3,32.2,32V948.3z M601.3,873.3c0-5-4-9.3-9.1-9.3
			h-59.8v85.1h59.8c5.1,0,9.1-4.2,9.1-9.3V873.3z"/>
		<path d="M787.7,980.3H662.6V832.9h125.1v31.2h-88.9v25.7h72.7v31.2h-72.7v28.2h88.9V980.3z"/>
		<path d="M922.1,832.9c16.8,0,32,14.3,32,32v115.4h-36.2v-107c0-5-4-9.3-9.1-9.3h-60v116.3h-36.2V832.9H922.1z"/>
		<path d="M250.2,1080h-50v-63.2h50v7.7h-41.3v19.3h34.3v7.7h-34.3v20.9h41.3V1080z"/>
		<path d="M321.7,1044.1c7.7,0,14.4,6.4,14.4,14.4v7.2c0,7.8-6.4,14.4-14.4,14.4h-40.9v-7.7h39c4.2,0,7.5-3.3,7.5-7.6v-5.4
			c0-4.2-3.2-7.6-7.5-7.6h-25.5c-7.7,0-14.5-6.4-14.5-14.4v-6.2c0-7.7,6.5-14.4,14.5-14.4h39.1v7.7h-37.2c-4.2,0-7.6,3.3-7.6,7.6
			v4.4c0,4.2,3.3,7.6,7.6,7.6H321.7z"/>
		<path d="M408.4,1016.8c7.7,0,14.4,6.4,14.4,14.4v15.6c0,7.8-6.5,14.4-14.4,14.4h-33v18.9h-8.8v-63.2H408.4z M414,1032
			c0-4.2-3.3-7.6-7.6-7.6h-31.1v29h31.1c4.2,0,7.6-3.3,7.6-7.6V1032z"/>
		<path d="M496.1,1016.8c7.7,0,14.4,6.4,14.4,14.4v34.5c0,7.8-6.4,14.4-14.4,14.4h-29.3c-7.8,0-14.4-6.4-14.4-14.4v-34.5
			c0-7.7,6.7-14.4,14.4-14.4H496.1z M501.7,1032c0-4.2-3.3-7.6-7.6-7.6h-25.3c-4.2,0-7.6,3.3-7.6,7.6v32.7c0,4.2,3.3,7.6,7.6,7.6
			h25.3c4.2,0,7.6-3.3,7.6-7.6V1032z"/>
		<path d="M582.8,1016.8c7.7,0,14.4,6.4,14.4,14.4v9.2c0,7.8-6.4,14.4-14.4,14.4l14.3,25.3h-9.6l-14.3-25.3h-23.5v25.3H541v-63.2
			H582.8z M588.4,1032c0-4.2-3.3-7.6-7.6-7.6h-31.1v22.6h31.1c4.2,0,7.6-3.3,7.6-7.6V1032z"/>
		<path d="M675.7,1024.6h-23.6v55.4h-8.8v-55.4h-23.7v-7.8h56V1024.6z"/>
		<path d="M741.4,1044.1c7.7,0,14.4,6.4,14.4,14.4v7.2c0,7.8-6.4,14.4-14.4,14.4h-40.9v-7.7h39c4.2,0,7.5-3.3,7.5-7.6v-5.4
			c0-4.2-3.2-7.6-7.5-7.6h-25.5c-7.7,0-14.5-6.4-14.5-14.4v-6.2c0-7.7,6.5-14.4,14.5-14.4h39.1v7.7H716c-4.2,0-7.6,3.3-7.6,7.6v4.4
			c0,4.2,3.3,7.6,7.6,7.6H741.4z"/>
	</g>
</g>
</svg>
