<svg width="27" height="25" viewBox="0 0 27 25" fill="none" xmlns="http://www.w3.org/2000/svg">
<path d="M26.0312 5.21875C25.1074 5.62891 24.1172 5.9043 23.0762 6.0293C24.1387 5.39258 24.9551 4.38477 25.3379 3.18555C24.3457 3.77344 23.2422 4.20117 22.0723 4.43164C21.1348 3.43164 19.7988 2.80859 18.3203 2.80859C15.4805 2.80859 13.1777 5.10937 13.1777 7.94922C13.1777 8.35156 13.2246 8.74414 13.3125 9.12109C9.03906 8.90625 5.25195 6.85938 2.71484 3.74805C2.27148 4.50977 2.01953 5.39258 2.01953 6.33398C2.01953 8.11719 2.92578 9.69141 4.30664 10.6152C3.46289 10.5879 2.66992 10.3555 1.97656 9.9707C1.97656 9.99219 1.97656 10.0137 1.97656 10.0352C1.97656 12.5273 3.75 14.6035 6.09961 15.0781C5.66992 15.1953 5.21484 15.2578 4.74609 15.2578C4.41406 15.2578 4.0918 15.2266 3.77734 15.1641C4.43359 17.2051 6.33203 18.6953 8.58008 18.7363C6.82227 20.1152 4.60547 20.9355 2.19531 20.9355C1.7793 20.9355 1.37109 20.9121 0.970703 20.8633C3.24414 22.3242 5.94727 23.1738 8.85156 23.1738C18.3086 23.1738 23.4805 15.3398 23.4805 8.54688C23.4805 8.32422 23.4746 8.09961 23.4668 7.88086C24.4707 7.15625 25.3418 6.25 26.0312 5.21875Z" fill="black"/>
</svg>
